<svg xmlns="http://www.w3.org/2000/svg" viewBox="0 0 24 24" fill="white"><path d="M12 0C5.37 0 0 5.37 0 12c0 5.3 3.44 9.8 8.21 11.39.6.11.82-.26.82-.58 0-.29-.01-1.04-.02-2.04-3.34.73-4.04-1.61-4.04-1.61-.54-1.38-1.33-1.75-1.33-1.75-1.09-.75.08-.74.08-.74 1.21.08 1.85 1.24 1.85 1.24 1.07 1.84 2.81 1.31 3.5 1 .11-.78.42-1.31.76-1.61-2.67-.3-5.47-1.34-5.47-5.95 0-1.31.47-2.38 1.23-3.22-.12-.3-.53-1.52.12-3.16 0 0 1-.32 3.3 1.23a11.51 11.51 0 0 1 6 0C17.68 3.4 18.68 3.72 18.68 3.72c.65 1.64.24 2.86.12 3.16.76.84 1.23 1.91 1.23 3.22 0 4.62-2.81 5.65-5.48 5.94.43.37.81 1.1.81 2.22 0 1.61-.02 2.91-.02 3.31 0 .32.22.69.82.58A12 12 0 0 0 24 12C24 5.37 18.63 0 12 0z"/></svg>
